<svg width="16" height="16" viewBox="0 0 16 16" fill="none" xmlns="http://www.w3.org/2000/svg">
<path d="M6.875 15.4436L0.275 8.84364C0.175 8.74364 0.104 8.6353 0.0619998 8.51864C0.0206665 8.40197 0 8.27697 0 8.14364C0 8.0103 0.0206665 7.8853 0.0619998 7.76864C0.104 7.65197 0.175 7.54364 0.275 7.44364L6.875 0.843637C7.05833 0.660304 7.28733 0.564304 7.562 0.555637C7.83733 0.547637 8.075 0.643637 8.275 0.843637C8.475 1.02697 8.57933 1.25597 8.588 1.53064C8.596 1.80597 8.5 2.04364 8.3 2.24364L3.4 7.14364H14.575C14.8583 7.14364 15.096 7.2393 15.288 7.43064C15.4793 7.62264 15.575 7.8603 15.575 8.14364C15.575 8.42697 15.4793 8.6643 15.288 8.85564C15.096 9.04764 14.8583 9.14364 14.575 9.14364H3.4L8.3 14.0436C8.48333 14.227 8.57933 14.4603 8.588 14.7436C8.596 15.027 8.5 15.2603 8.3 15.4436C8.11667 15.6436 7.88333 15.7436 7.6 15.7436C7.31667 15.7436 7.075 15.6436 6.875 15.4436Z" fill="black"/>
</svg>
