<svg width="40" height="40" viewBox="0 0 40 40" fill="none" xmlns="http://www.w3.org/2000/svg">
<path d="M40 0H0V40H40V0Z" fill="#797EF3"/>
<path d="M24.7929 40H10.1033C10.4593 38.6952 10.7481 37.5392 10.8017 37.2968C11.2697 35.152 11.5657 32.976 11.6841 30.7928C11.7457 29.6608 11.7601 28.5264 11.7265 27.3936C11.7033 26.6088 11.3457 25.3544 11.7017 24.6064C12.3833 23.172 15.5521 24.856 16.9593 25.0392C19.3761 25.3544 21.8337 25.2064 24.2585 25.0592C23.8897 30.0392 24.0705 35.052 24.7929 40Z" fill="#797EF3"/>
<path d="M35.0121 22.3912C35.2385 23.416 35.6737 24.4096 35.6817 25.46C35.4641 25.5128 35.2617 25.3392 35.1121 25.1728C33.5305 23.4104 33.0281 20.9504 32.6961 18.6056C32.4913 17.1576 31.9657 14.7528 32.6521 13.3816C33.0017 12.6832 34.2673 11.8712 34.9905 12.5432C35.8457 13.3392 35.1561 16.1456 35.0425 17.1672C34.8497 18.9 34.6305 20.6664 35.0121 22.3912Z" fill="#444DF2"/>
<path d="M22.5376 2.67518C21.8632 2.29198 21.1632 1.95358 20.4376 1.66878C17.3392 0.454378 13.7 0.331178 10.7656 1.90318C8.18403 3.28638 6.37603 5.84558 5.40243 8.60798C4.42883 11.3704 4.21443 14.3408 4.19923 17.2688C4.18003 20.8288 4.44323 24.3864 4.88163 27.9184C5.16163 30.1776 5.86083 35.9856 8.88403 36.1056C12.5952 36.252 16.32 36.068 19.9992 35.5592C23.1328 35.1264 28.296 37.512 30.8 35.36C32.2952 34.0744 31.7496 29.4544 32.3912 27.5896C33.1712 25.324 33.7528 22.968 33.8224 20.5728C33.9144 17.4152 33.0928 14.2352 31.4824 11.5176C30.6256 10.072 29.556 8.76158 28.4152 7.52798C26.6848 5.65758 24.7432 3.92798 22.5376 2.67518Z" fill="#444DF2"/>
<path d="M24.7929 40H10.1033C10.4593 38.6952 10.7481 37.5392 10.8017 37.2968C11.2697 35.152 11.5657 32.976 11.6841 30.7928C11.7457 29.6608 11.7601 28.5264 11.7265 27.3936C11.7033 26.6088 11.3457 25.3544 11.7017 24.6064C12.3833 23.172 15.5521 24.856 16.9593 25.0392C19.3761 25.3544 21.8337 25.2064 24.2585 25.0592C23.8897 30.0392 24.0705 35.052 24.7929 40Z" fill="#E8AE8E"/>
<path d="M11.8983 29.9352C14.3431 32.5608 17.7095 34.2256 21.3231 35.1584C24.7631 36.0464 28.8135 36.1512 31.4471 33.7664C33.6599 31.7632 34.2631 28.5568 34.4903 25.58C34.7623 22.0136 34.6759 18.4296 34.5199 14.8568C34.4519 13.3032 34.3695 11.7392 33.9967 10.2304C33.4327 7.94879 32.0239 4.91679 29.7935 3.90399C27.0991 2.68079 23.8711 2.35839 20.9559 2.68799C18.8463 2.92639 16.6999 3.17919 14.7607 4.04079C13.0183 4.81519 10.7599 5.80319 9.82946 7.53199C8.64946 9.72399 7.97826 12.2584 7.69266 14.7208C7.25906 18.4552 7.76546 22.3096 9.21746 25.7816C9.88226 27.376 10.7967 28.7528 11.8983 29.9352Z" fill="#F4C19F"/>
<path d="M9.84629 15.356C9.33509 14.752 8.62069 14.3496 7.64549 14.3272C6.21269 14.2944 4.8407 15.2816 4.3223 16.6184C3.4879 18.7712 4.88309 21.3984 6.76389 22.5088C8.43429 23.4944 10.3951 22.92 10.8823 20.9704C11.0983 20.1056 11.0135 19.1984 10.9263 18.3112C10.8223 17.2424 10.5023 16.132 9.84629 15.356Z" fill="#F4C19F"/>
<path d="M6.70631 20.7096C6.48071 20.7096 6.2887 20.5368 6.2687 20.308C6.2039 19.5624 6.49591 19.1144 6.75191 18.8696C7.21831 18.424 7.8991 18.308 8.3927 18.2896C8.3183 18.1208 8.2095 17.98 8.0647 17.8648C7.4071 17.3416 6.2247 17.5032 6.2127 17.5048C5.9727 17.5416 5.74791 17.376 5.71191 17.136C5.67511 16.896 5.8407 16.6712 6.0807 16.6352C6.1439 16.6256 7.64631 16.4088 8.61191 17.176C9.07431 17.544 9.3351 18.0624 9.3855 18.716C9.3959 18.848 9.3455 18.9784 9.2495 19.0696C9.1527 19.1608 9.0207 19.2032 8.8887 19.1864C8.5959 19.1488 7.7487 19.1328 7.3583 19.5072C7.1871 19.672 7.1175 19.9088 7.1455 20.232C7.1663 20.4744 6.9871 20.6872 6.7455 20.7088C6.7319 20.7088 6.71911 20.7096 6.70631 20.7096Z" fill="#EAAA7F"/>
<path d="M17.0753 13.3328C17.0729 13.336 17.0713 13.3392 17.0689 13.3424C16.8049 13.7288 15.8713 13.6904 15.4681 13.7416C15.1329 13.784 10.3793 14.2048 10.3569 13.9816C10.5385 15.8336 10.7201 17.6864 10.9017 19.5384C11.1321 21.892 11.3281 24.42 10.1537 26.4728C10.5833 23.3424 10.0201 20.0832 8.56489 17.2784C8.10169 16.3848 7.54249 15.516 7.34569 14.5288C7.17689 13.6792 7.28969 12.7992 7.46889 11.952C7.91689 9.84161 8.78169 7.82081 9.99929 6.04001C12.2353 2.77121 16.2929 1.10241 20.1449 0.828814C21.8569 0.707214 23.5785 0.724815 25.2873 0.881615C27.7353 1.10641 30.5233 1.90321 32.1393 3.87841C33.0905 5.04161 33.6993 6.44001 34.2961 7.81921C34.4321 8.13361 36.3249 13.9248 35.8457 13.82C34.8713 13.608 33.8977 13.396 32.9233 13.184C31.8777 12.9568 30.8313 12.7288 29.7705 12.5888C27.6033 12.3032 25.4121 12.3912 23.2409 12.5816C22.6721 12.6312 19.1257 13.4416 18.8425 12.6248C18.3737 11.2728 17.9041 9.92081 17.4353 8.56881C17.3585 8.34801 17.0361 8.11281 16.9617 8.33441C16.9633 9.26321 17.5281 12.6328 17.0753 13.3328Z" fill="#444DF2"/>
<path d="M25.3065 25.084C25.0641 25.084 24.8673 24.888 24.8665 24.6456C24.8657 24.4024 25.0617 24.2048 25.3041 24.204C25.3329 24.204 28.1441 24.1688 28.3041 22.6104C28.3673 21.9912 28.1817 21.776 27.8449 21.3864C27.2913 20.7464 26.5337 19.8696 26.5841 17.0312C26.5881 16.7912 26.7841 16.5992 27.0241 16.5992C27.0265 16.5992 27.0297 16.5992 27.0321 16.5992C27.2753 16.6032 27.4689 16.804 27.4641 17.0472C27.4193 19.5496 28.0241 20.2488 28.5105 20.8112C28.8897 21.2496 29.2817 21.704 29.1793 22.7008C28.9385 25.0432 25.4561 25.084 25.3081 25.0848C25.3081 25.084 25.3073 25.084 25.3065 25.084Z" fill="#1B1464"/>
<path d="M21.7727 20.834C22.4143 20.7919 22.8769 19.8832 22.8061 18.8043C22.7353 17.7254 22.1578 16.8849 21.5163 16.9271C20.8748 16.9692 20.4121 17.8779 20.483 18.9568C20.5538 20.0357 21.1312 20.8761 21.7727 20.834Z" fill="#1B1464"/>
<path d="M30.6612 20.5844C31.3027 20.5423 31.7653 19.6335 31.6945 18.5547C31.6237 17.4758 31.0462 16.6353 30.4047 16.6774C29.7632 16.7195 29.3006 17.6283 29.3714 18.7072C29.4422 19.786 30.0197 20.6265 30.6612 20.5844Z" fill="#1B1464"/>
<path d="M32.8512 16.4808C32.7608 16.4808 32.6704 16.4536 32.592 16.396C30.6712 14.992 28.944 15.4288 28.8712 15.448C28.6368 15.5104 28.396 15.372 28.3328 15.1376C28.2696 14.904 28.4064 14.6632 28.6392 14.5984C28.728 14.5744 30.8328 14.02 33.1112 15.6848C33.3072 15.828 33.3504 16.1032 33.2072 16.3C33.1208 16.4184 32.9872 16.4808 32.8512 16.4808Z" fill="#1B1464"/>
<path d="M17.2335 16.9584C17.1647 16.9584 17.0943 16.9424 17.0287 16.9072C16.8135 16.7936 16.7311 16.528 16.8447 16.3128C16.8887 16.2296 17.9663 14.2864 22.5319 14.2864C22.5719 14.2864 22.6119 14.2864 22.6527 14.2872C22.8959 14.2888 23.0911 14.4872 23.0895 14.7304C23.0879 14.972 22.8911 15.1672 22.6495 15.1672C22.6487 15.1672 22.6471 15.1672 22.6463 15.1672C18.5759 15.1376 17.6311 16.7072 17.6231 16.7232C17.5447 16.8728 17.3919 16.9584 17.2335 16.9584Z" fill="#1B1464"/>
<path d="M24.5744 28.8168C21.092 28.8168 18.7752 25.9968 18.6712 25.8688C18.5184 25.68 18.548 25.4024 18.7376 25.2504C18.9264 25.0976 19.2032 25.1272 19.356 25.3168C19.392 25.3608 21.836 28.312 25.2536 27.896C25.4952 27.8672 25.7144 28.0384 25.7432 28.28C25.7728 28.5208 25.6008 28.7408 25.3592 28.7696C25.092 28.8016 24.8296 28.8168 24.5744 28.8168Z" fill="#1B1464"/>
<path d="M24.0649 36.08C18.9361 36.08 13.6993 32.1576 13.4793 31.9904C13.2857 31.844 13.2473 31.568 13.3945 31.3744C13.5409 31.1808 13.8169 31.1424 14.0113 31.2888C14.0633 31.328 19.2353 35.1992 24.0657 35.1992C24.3089 35.1992 24.5057 35.396 24.5057 35.6392C24.5057 35.8824 24.3081 36.08 24.0649 36.08Z" fill="#1B1464"/>
</svg>
