<svg width="40" height="40" viewBox="0 0 40 40" fill="none" xmlns="http://www.w3.org/2000/svg">
<path d="M40 0.000915527H0V40H40V0.000915527Z" fill="#444DF2"/>
<path d="M23.5319 33.2562C23.2543 35.4841 22.9879 37.7481 22.8991 40H4.22949C4.47509 39.6232 4.76629 39.2248 5.09269 38.7904C6.69509 36.6617 7.99349 34.3049 8.94309 31.8154C9.41749 30.5714 9.80549 29.2931 10.0991 27.9939C10.3039 27.0923 10.9871 25.1348 10.6807 24.246C10.8559 24.7548 11.1031 25.2251 11.4063 25.6595C12.3655 27.0331 13.8863 28.0339 15.4671 28.6659C17.5479 29.4971 19.7927 29.8178 21.9463 30.4362C22.3967 30.5658 22.8655 30.7226 23.1799 31.0706C23.6903 31.637 23.6263 32.4994 23.5319 33.2562Z" fill="#444DF2"/>
<path d="M23.5319 33.2562C23.2543 35.4841 22.9879 37.7481 22.8991 40H4.22949C4.47509 39.6232 4.76629 39.2248 5.09269 38.7904C6.69509 36.6617 7.99349 34.3049 8.94309 31.8154C9.41749 30.5714 9.80549 29.2931 10.0991 27.9939C10.3039 27.0923 10.9871 25.1348 10.6807 24.246C10.8559 24.7548 11.1031 25.2251 11.4063 25.6595C12.3655 27.0331 13.8863 28.0339 15.4671 28.6659C17.5479 29.4971 19.7927 29.8178 21.9463 30.4362C22.3967 30.5658 22.8655 30.7226 23.1799 31.0706C23.6903 31.637 23.6263 32.4994 23.5319 33.2562Z" fill="#EAAA7F"/>
<path d="M8.46953 14.563C8.44393 12.8126 8.62953 11.0399 9.43833 9.4679C10.8255 6.76956 13.8687 5.0968 16.9607 4.51121C20.0535 3.92563 23.2335 4.26802 26.3479 4.63601C28.2191 4.8576 31.0095 5.1952 32.0135 6.90956C33.3407 9.17351 33.4695 12.4414 33.7335 14.975C33.9975 17.5085 34.3199 20.0357 34.5727 22.5708C34.7943 24.7939 34.7087 27.1539 33.8095 29.2674C32.7351 31.7938 30.3831 33.8481 27.5943 34.5273C23.6271 35.4929 18.2095 34.2361 15.6567 31.2258C13.7823 29.0154 11.6815 26.6059 10.4407 24.0124C9.16473 21.3452 8.64553 18.3917 8.49993 15.4686C8.48473 15.1678 8.47353 14.8654 8.46953 14.563Z" fill="#F7C9A4"/>
<path d="M11.3209 25.3819C10.7521 25.4459 10.1937 25.3915 9.68248 25.1259C9.05688 24.8012 8.62088 24.21 8.22008 23.6308C5.97448 20.3901 4.25848 16.4917 3.90488 12.5286C3.76968 11.0095 4.12408 9.37511 5.19128 8.28473C5.46328 8.00714 5.77848 7.76634 5.99448 7.44315C6.27928 7.01756 6.36408 6.49357 6.54648 6.01438C7.14728 4.43282 8.73928 3.31604 10.2737 2.60486C17.3337 -0.667064 26.0369 -1.15825 32.6913 2.87605C33.2561 3.21845 33.8145 3.76163 34.2049 4.29362C35.8449 6.52957 34.2457 9.6487 32.2017 10.8775C29.2937 12.6262 26.2665 13.3494 22.8721 12.9574C20.0225 12.6278 17.2881 11.6759 14.5801 10.7295C15.6385 13.3174 15.5985 16.2397 14.6209 18.8429C14.1673 20.0517 14.2793 20.7108 14.2673 21.9708C14.2601 22.7044 14.2889 24.4316 13.4257 24.774C12.7561 25.0395 12.0305 25.3027 11.3209 25.3819Z" fill="#1B1464"/>
<path d="M12.1104 17.6549C14.2544 19.1421 14.9152 22.8524 14.9696 25.2827C14.972 25.3963 14.9736 25.5147 15.024 25.6171C15.1864 25.9523 12.8976 26.0691 12.712 26.0707C11.8088 26.0795 10.9048 25.9843 10.0232 25.7859C9.0664 25.5707 8.7752 25.3187 8.2064 24.4955C7.7288 23.8044 7.3552 23.038 7.1536 22.2212C6.8264 20.8956 6.9808 19.4237 7.7272 18.2813C7.9744 17.9029 8.2872 17.5605 8.6728 17.3253C9.7128 16.6925 11.1096 16.9605 12.1104 17.6549Z" fill="#F7C9A4"/>
<path d="M13.7665 25.4436C11.9305 26.6923 9.64247 25.9547 8.99367 25.4052C8.04887 24.6044 7.44567 23.41 7.15287 22.222C6.82567 20.8965 6.98007 19.4245 7.72647 18.2821C7.97367 17.9037 8.28647 17.5613 8.67207 17.3261C9.71207 16.6926 11.1089 16.9613 12.1105 17.6549C13.2041 18.4133 13.9529 19.6493 14.1193 20.9701" fill="#F7C9A4"/>
<path d="M25.3822 20.9527C25.9708 20.914 26.3953 20.08 26.3303 19.0897C26.2653 18.0995 25.7354 17.3281 25.1468 17.3667C24.5582 17.4053 24.1337 18.2394 24.1987 19.2296C24.2637 20.2199 24.7936 20.9913 25.3822 20.9527Z" fill="#1B1464"/>
<path d="M31.6319 19.0341C32.2206 18.9955 32.645 18.1614 32.58 17.1712C32.515 16.181 31.9852 15.4095 31.3966 15.4482C30.808 15.4868 30.3835 16.3209 30.4485 17.3111C30.5135 18.3014 31.0433 19.0728 31.6319 19.0341Z" fill="#1B1464"/>
<path d="M29.2177 26.0795C28.3233 26.0795 27.4289 25.8147 26.8393 25.5947C26.6305 25.5163 26.5241 25.2843 26.6025 25.0747C26.6809 24.8659 26.9137 24.7596 27.1225 24.838C27.8009 25.0915 29.4873 25.6099 30.4865 24.9491C30.5665 24.8963 30.5913 24.8675 30.5985 24.8571C30.6009 24.8188 30.5705 24.7172 30.5569 24.6724C30.3025 23.8268 29.9809 22.986 29.6705 22.1732C29.1921 20.9212 28.6977 19.6261 28.4185 18.2549C28.3737 18.0365 28.5153 17.8229 28.7337 17.7781C28.9521 17.7333 29.1657 17.8749 29.2105 18.0933C29.4769 19.3997 29.9593 20.6628 30.4257 21.8852C30.7417 22.7116 31.0681 23.5668 31.3313 24.4396C31.3777 24.5924 31.4545 24.8476 31.3657 25.1131C31.2801 25.3699 31.0777 25.5267 30.9329 25.6227C30.4233 25.9587 29.8209 26.0795 29.2177 26.0795Z" fill="#1B1464"/>
<path d="M21.1031 19.0157C20.9079 19.0157 20.7359 18.8733 20.7047 18.6741C20.4335 16.9437 21.5055 15.1054 23.1455 14.4902C23.3543 14.4118 23.5871 14.5174 23.6655 14.7262C23.7439 14.935 23.6383 15.1678 23.4295 15.2462C22.1351 15.7318 21.2887 17.1829 21.5031 18.5485C21.5375 18.7685 21.3871 18.9757 21.1663 19.0101C21.1447 19.0141 21.1239 19.0157 21.1031 19.0157Z" fill="#1B1464"/>
<path d="M32.7703 14.2038C32.6071 14.2038 32.4535 14.1038 32.3927 13.9422C32.3023 13.7014 32.0927 13.5006 31.8191 13.391C31.5455 13.2814 31.2551 13.2822 31.0231 13.3926C30.8223 13.4894 30.5807 13.4038 30.4847 13.203C30.3879 13.0022 30.4735 12.7606 30.6743 12.6638C31.1095 12.455 31.6367 12.447 32.1199 12.6406C32.6031 12.8342 32.9783 13.2046 33.1487 13.6566C33.2271 13.8654 33.1223 14.0982 32.9135 14.1774C32.8663 14.195 32.8175 14.2038 32.7703 14.2038Z" fill="#1B1464"/>
<path d="M27.5767 30.2547C26.5551 30.2547 25.5327 29.9659 24.6919 29.3923C24.5079 29.2667 24.4599 29.0155 24.5863 28.8307C24.7119 28.6467 24.9631 28.5987 25.1479 28.7243C26.5079 29.6523 28.4359 29.6947 29.8359 28.8259C30.0255 28.7083 30.2743 28.7667 30.3919 28.9563C30.5095 29.1459 30.4511 29.3947 30.2615 29.5123C29.4631 30.0083 28.5199 30.2547 27.5767 30.2547Z" fill="#1B1464"/>
<path d="M23.02 35.4361C22.9952 35.4361 22.9704 35.4337 22.9448 35.4289C19.8528 34.8473 16.7504 32.9585 14.2104 30.1106C14.0616 29.9442 14.0768 29.689 14.2432 29.5402C14.4096 29.3914 14.6648 29.4066 14.8136 29.573C17.236 32.2882 20.1768 34.0865 23.0944 34.6345C23.3136 34.6761 23.4576 34.8865 23.4168 35.1057C23.38 35.3009 23.2104 35.4361 23.02 35.4361Z" fill="#1B1464"/>
<path d="M9.91037 23.314C9.70317 23.314 9.52637 23.1556 9.50877 22.9452C9.44957 22.2604 9.71677 21.8492 9.95197 21.6244C10.38 21.2156 11.0048 21.1084 11.4584 21.0916C11.3904 20.9372 11.2912 20.8084 11.1592 20.7036C10.5512 20.218 9.46717 20.37 9.45677 20.3716C9.23677 20.4036 9.03117 20.2516 8.99837 20.0316C8.96557 19.8116 9.11677 19.606 9.33677 19.5724C9.39517 19.5636 10.7744 19.3645 11.6608 20.0692C12.0856 20.4068 12.3248 20.8828 12.3704 21.4828C12.38 21.6044 12.3336 21.7236 12.2456 21.8076C12.1568 21.8916 12.0352 21.93 11.9144 21.9148C11.6456 21.8804 10.868 21.8652 10.5096 22.2092C10.352 22.3604 10.288 22.578 10.3144 22.8748C10.3336 23.0972 10.1696 23.2932 9.94717 23.3124C9.93437 23.3132 9.92237 23.314 9.91037 23.314Z" fill="#EAAA7F"/>
</svg>
