<svg width="40" height="40" viewBox="0 0 40 40" fill="none" xmlns="http://www.w3.org/2000/svg">
<g clip-path="url(#clip0_83657_15796)">
<rect width="40" height="40" rx="20" fill="white"/>
<path d="M40 0H0V40H40V0Z" fill="#ADB0D9"/>
<path d="M24.5528 40H6.75122C6.81442 39.812 6.87922 39.6248 6.94242 39.4376C8.21282 35.6736 8.70802 32.0296 8.78082 28.084C13.288 29.2312 18.0216 28.7392 22.672 28.6912C24.4024 28.6736 23.8208 30.028 23.8432 31.288C23.8704 32.8632 23.952 34.4376 24.088 36.0072C24.2032 37.3424 24.3584 38.6744 24.5528 40Z" fill="#ADB0D9"/>
<path d="M24.5528 40H6.75122C6.81442 39.812 6.87922 39.6248 6.94242 39.4376C8.21282 35.6736 8.70802 32.0296 8.78082 28.084C13.288 29.2312 18.0216 28.7392 22.672 28.6912C24.4024 28.6736 23.8208 30.028 23.8432 31.288C23.8704 32.8632 23.952 34.4376 24.088 36.0072C24.2032 37.3424 24.3584 38.6744 24.5528 40Z" fill="#E8AE8E"/>
<path d="M11.9281 31.3056C11.9569 31.34 11.9865 31.3744 12.0153 31.408C12.3865 31.8448 12.7601 32.284 13.1969 32.656C15.4745 34.5936 19.0193 34.816 21.8249 35.3632C23.5289 35.6952 25.2345 35.752 26.9137 35.2376C28.8497 34.644 30.5865 33.3352 31.5593 31.5592C32.7705 29.3464 32.7217 26.6856 32.6417 24.164C32.5961 22.7328 32.5505 21.3024 32.5049 19.8712C32.4761 18.9736 32.4481 18.0752 32.4937 17.1784C32.6057 14.968 33.1833 12.7008 32.7065 10.4976C32.3105 8.6688 30.7809 6.76 29.0737 5.9848C26.3793 4.7616 23.1513 4.4392 20.2361 4.7688C18.1265 5.0072 15.9801 5.26 14.0409 6.1216C12.2985 6.896 10.0401 7.884 9.10972 9.6128C7.92972 11.8048 7.25852 14.3392 6.97292 16.8016C6.73692 18.8368 6.77932 20.9048 7.10172 22.9288C7.40652 24.8432 7.91612 26.5848 9.18172 28.0736C10.0961 29.1512 11.0121 30.228 11.9281 31.3056Z" fill="#F4C19F"/>
<path d="M24.5864 25.084C24.348 25.084 24.152 24.8936 24.1464 24.6544C24.1408 24.4112 24.3328 24.2096 24.576 24.204C25.6728 24.1784 26.1104 23.8608 26.8552 23.176C26.004 21.2744 25.5032 19.2568 25.3648 17.1736C25.3488 16.9312 25.532 16.7216 25.7744 16.7056C26.0152 16.6904 26.2264 16.8728 26.2424 17.1152C26.3784 19.1664 26.912 21.2344 27.7856 23.0952C27.8672 23.268 27.8272 23.4736 27.6872 23.604C26.668 24.5528 26.068 25.0496 24.596 25.0832C24.5936 25.084 24.5904 25.084 24.5864 25.084Z" fill="#1B1464"/>
<path d="M21.0547 20.8339C21.6962 20.7918 22.1589 19.8831 22.0881 18.8042C22.0172 17.7253 21.4398 16.8848 20.7983 16.9269C20.1568 16.969 19.6941 17.8778 19.7649 18.9567C19.8358 20.0355 20.4132 20.876 21.0547 20.8339Z" fill="#1B1464"/>
<path d="M29.9432 20.5842C30.5847 20.5421 31.0473 19.6334 30.9765 18.5545C30.9057 17.4756 30.3282 16.6351 29.6867 16.6772C29.0452 16.7193 28.5826 17.6281 28.6534 18.707C28.7242 19.7858 29.3016 20.6263 29.9432 20.5842Z" fill="#1B1464"/>
<path d="M31.9439 16.948C31.8191 16.948 31.6943 16.8952 31.6079 16.792C30.0575 14.9584 28.2351 14.9944 28.2175 14.9936C27.9719 15.0024 27.7719 14.8104 27.7639 14.5672C27.7559 14.324 27.9471 14.1216 28.1903 14.1136C28.2815 14.1112 30.4583 14.068 32.2807 16.2232C32.4375 16.4088 32.4143 16.6864 32.2287 16.8432C32.1447 16.9136 32.0439 16.948 31.9439 16.948Z" fill="#1B1464"/>
<path d="M16.8672 17.6728C16.8368 17.6728 16.8064 17.6696 16.7752 17.6632C16.5376 17.6136 16.3856 17.3768 16.4352 17.1392C16.4544 17.0464 16.964 14.844 21.4616 13.592C21.696 13.5272 21.9384 13.664 22.0032 13.8976C22.068 14.132 21.9312 14.3744 21.6976 14.4392C17.7792 15.5304 17.3 17.308 17.2952 17.3256C17.2512 17.5336 17.0704 17.6728 16.8672 17.6728Z" fill="#1B1464"/>
<path d="M24.6776 29.6104C24.3296 29.6104 23.968 29.5592 23.6048 29.4552C22.7592 29.2128 22.0024 28.7304 21.3352 28.3048C21.1304 28.1744 21.0704 27.9016 21.2008 27.6976C21.3312 27.4928 21.6032 27.4328 21.808 27.5632C22.4544 27.976 23.1232 28.4032 23.8456 28.6096C24.5952 28.824 25.3136 28.7536 25.8168 28.4168C26.0184 28.2816 26.292 28.336 26.4272 28.5376C26.5624 28.7392 26.508 29.0128 26.3064 29.148C25.8504 29.4536 25.2856 29.6104 24.6776 29.6104Z" fill="#1B1464"/>
<path d="M8.70888 24.1712C8.40408 22.8256 8.74087 21.304 8.80727 19.9328C8.81607 19.7592 8.83127 19.568 8.94647 19.4456C9.18007 19.1968 9.56167 19.4192 9.87687 19.5232C10.4609 19.7152 11.1161 19.4064 11.5025 18.9016C11.9585 18.3064 12.0905 17.5016 12.1105 16.7328C12.1217 16.2976 12.0865 15.9264 11.9161 15.5368C11.8129 15.3024 11.5865 14.6352 11.3353 14.548C12.3649 14.9032 13.6145 14.844 14.3801 14.0296C14.6089 13.7864 14.7817 13.4896 14.9289 13.1832C15.3201 12.3672 15.7049 10.9184 14.9665 10.2032C15.6793 10.9208 16.6977 11.4392 17.6945 11.1928C18.7113 10.9408 19.4833 9.63922 18.9937 8.65682C19.5017 9.72962 20.1369 10.9152 21.2313 11.2024C22.4489 11.5224 23.7841 10.284 23.6545 8.95442C24.1905 10.3016 25.0121 11.6472 26.2985 12.1592C27.5841 12.6712 29.3465 11.9016 29.4785 10.4448C29.4433 10.8272 29.2929 11.236 29.3121 11.616C29.3841 13.032 30.6601 14.1216 31.7297 14.7504C32.7537 15.352 33.9561 16.0184 35.1849 15.8128C36.3473 15.6192 36.9233 14.64 37.0945 13.4664C37.2065 12.6976 37.1569 11.828 36.6529 11.2648C36.0865 12.156 35.0337 12.6656 34.0313 12.5352C34.6081 12.1952 35.0377 11.5032 34.9409 10.8088C34.8257 9.97442 34.0185 9.64722 33.3497 9.80722C34.0153 8.95442 34.8905 8.32002 34.8409 7.05442C34.7857 5.65042 33.6545 4.21922 32.5449 3.58882C31.9665 3.26002 31.2889 3.06962 30.6505 3.22722C30.0121 3.38482 29.4385 3.95442 29.3881 4.65122C29.2209 3.28322 28.3481 2.09202 27.2585 1.34882C26.1689 0.60562 24.8793 0.26162 23.5961 0.08242C22.7753 -0.03278 21.9025 -0.07678 21.1585 0.30962C20.4145 0.69602 19.8681 1.64402 20.1513 2.47282C19.1937 0.97442 17.4713 0.17522 15.7737 0.06242C14.0761 -0.05038 12.3929 0.44562 10.8057 1.09842C10.2017 1.34722 9.57288 1.64722 9.20968 2.21842C8.42488 3.45362 9.28488 5.09762 10.1817 6.24162C9.64728 5.06722 8.20808 4.79682 6.98408 4.77042C5.70808 4.74322 4.17848 4.98882 3.64408 6.22402C3.06408 7.56322 4.06568 9.03682 4.99928 10.124C3.61928 9.50722 1.83048 10.7008 1.74808 12.2936C1.66568 13.8864 3.32007 15.2832 4.75607 14.8312C4.40807 14.36 3.63288 14.544 3.32488 15.0464C3.01688 15.548 3.06008 16.2056 3.18808 16.7896C3.39528 17.7392 3.79768 18.64 4.35768 19.4112C4.78888 20.0048 5.74088 20.4808 6.09288 19.8304C5.07528 19.9296 4.15288 20.7448 3.87288 21.7928C3.59288 22.84 3.97448 24.052 4.79048 24.7072C5.15288 24.9984 5.62088 25.1864 6.06168 25.0728C6.50248 24.9592 6.86727 24.468 6.75607 23.9992C6.31367 23.8016 5.78648 24.1776 5.63928 24.664C5.49208 25.1504 5.63208 25.684 5.83768 26.1456C6.20808 26.9784 6.79688 27.6984 7.51928 28.204C7.68328 28.3184 7.87048 28.4264 8.06408 28.3968C8.35928 28.352 8.52887 28.02 8.62807 27.7208C9.02327 26.532 8.97848 25.3728 8.70888 24.1712Z" fill="#444DF2"/>
<path d="M9.28648 16.156C8.77528 15.552 8.06087 15.1496 7.08567 15.1272C5.65287 15.0944 4.28088 16.0816 3.76248 17.4184C2.92808 19.5712 4.32328 22.1984 6.20408 23.3088C7.87448 24.2944 9.83528 23.72 10.3225 21.7704C10.5385 20.9056 10.4537 19.9984 10.3665 19.1112C10.2625 18.0424 9.94247 16.932 9.28648 16.156Z" fill="#F4C19F"/>
<path d="M6.14649 21.5096C5.92089 21.5096 5.72889 21.3368 5.70889 21.108C5.64409 20.3624 5.93609 19.9144 6.19209 19.6696C6.65849 19.224 7.33929 19.108 7.83289 19.0896C7.75849 18.9208 7.64969 18.78 7.50489 18.6648C6.84729 18.1416 5.66489 18.3032 5.65289 18.3048C5.41289 18.3424 5.18809 18.176 5.15209 17.936C5.11529 17.696 5.28089 17.4712 5.52089 17.4352C5.58409 17.4256 7.08649 17.2088 8.05209 17.976C8.51449 18.344 8.77528 18.8624 8.82568 19.516C8.83608 19.648 8.78569 19.7784 8.68969 19.8696C8.59289 19.9608 8.46089 20.0032 8.32889 19.9864C8.03609 19.9488 7.18889 19.9328 6.79849 20.3072C6.62729 20.472 6.55768 20.7088 6.58568 21.032C6.60649 21.2744 6.42729 21.4872 6.18569 21.5088C6.17209 21.5088 6.15929 21.5096 6.14649 21.5096Z" fill="#EAAA7F"/>
<path d="M23.5551 35.8256C23.4311 35.8256 21.3655 35.8144 18.7183 35.1288C16.2383 34.4864 12.7711 33.1024 10.3407 30.16C10.1863 29.9728 10.2127 29.6952 10.3999 29.5408C10.5871 29.3864 10.8647 29.4128 11.0191 29.6C13.2943 32.3544 16.5695 33.66 18.9159 34.2712C21.4815 34.9392 23.5311 34.9456 23.5567 34.9456C23.7999 34.9456 23.9967 35.1424 23.9967 35.3848C23.9967 35.628 23.8007 35.8248 23.5575 35.8256C23.5575 35.8256 23.5567 35.8256 23.5551 35.8256Z" fill="#1B1464"/>
</g>
<rect x="1" y="1" width="38" height="38" rx="19" stroke="white" stroke-width="2"/>
<defs>
<clipPath id="clip0_83657_15796">
<rect width="40" height="40" rx="20" fill="white"/>
</clipPath>
</defs>
</svg>
