<svg width="23" height="21" viewBox="0 0 23 21" fill="none" xmlns="http://www.w3.org/2000/svg">
<path d="M10.0364 21C8.65304 21 7.35304 20.7375 6.13638 20.2125C4.91971 19.6875 3.86138 18.975 2.96138 18.075C2.06138 17.175 1.34888 16.1167 0.823877 14.9C0.298877 13.6833 0.036377 12.3833 0.036377 11C0.036377 9.61667 0.298877 8.31667 0.823877 7.1C1.34888 5.88333 2.06138 4.825 2.96138 3.925C3.86138 3.025 4.91971 2.3125 6.13638 1.7875C7.35304 1.2625 8.65304 1 10.0364 1C10.7864 1 11.5155 1.07917 12.2239 1.2375C12.9322 1.39583 13.603 1.625 14.2364 1.925C14.1697 2.09167 14.1197 2.26667 14.0864 2.45C14.053 2.63333 14.0364 2.81667 14.0364 3C14.0364 3.23333 14.0614 3.45417 14.1114 3.6625C14.1614 3.87083 14.228 4.06667 14.3114 4.25C13.6947 3.86667 13.028 3.5625 12.3114 3.3375C11.5947 3.1125 10.8364 3 10.0364 3C7.81971 3 5.93221 3.77917 4.37388 5.3375C2.81554 6.89583 2.03638 8.78333 2.03638 11C2.03638 13.2167 2.81554 15.1042 4.37388 16.6625C5.93221 18.2208 7.81971 19 10.0364 19C12.253 19 14.1405 18.2208 15.6989 16.6625C17.2572 15.1042 18.0364 13.2167 18.0364 11C18.0364 10.3333 17.9572 9.69167 17.7989 9.075C17.6405 8.45833 17.4197 7.875 17.1364 7.325C17.403 7.54167 17.6947 7.70833 18.0114 7.825C18.328 7.94167 18.6697 8 19.0364 8C19.1197 8 19.2072 7.99583 19.2989 7.9875C19.3905 7.97917 19.478 7.96667 19.5614 7.95C19.7114 8.43333 19.828 8.92917 19.9114 9.4375C19.9947 9.94583 20.0364 10.4667 20.0364 11C20.0364 12.3833 19.7739 13.6833 19.2489 14.9C18.7239 16.1167 18.0114 17.175 17.1114 18.075C16.2114 18.975 15.153 19.6875 13.9364 20.2125C12.7197 20.7375 11.4197 21 10.0364 21ZM13.5364 10C13.9697 10 14.328 9.85833 14.6114 9.575C14.8947 9.29167 15.0364 8.93333 15.0364 8.5C15.0364 8.06667 14.8947 7.70833 14.6114 7.425C14.328 7.14167 13.9697 7 13.5364 7C13.103 7 12.7447 7.14167 12.4614 7.425C12.178 7.70833 12.0364 8.06667 12.0364 8.5C12.0364 8.93333 12.178 9.29167 12.4614 9.575C12.7447 9.85833 13.103 10 13.5364 10ZM6.53638 10C6.96971 10 7.32804 9.85833 7.61138 9.575C7.89471 9.29167 8.03638 8.93333 8.03638 8.5C8.03638 8.06667 7.89471 7.70833 7.61138 7.425C7.32804 7.14167 6.96971 7 6.53638 7C6.10304 7 5.74471 7.14167 5.46138 7.425C5.17804 7.70833 5.03638 8.06667 5.03638 8.5C5.03638 8.93333 5.17804 9.29167 5.46138 9.575C5.74471 9.85833 6.10304 10 6.53638 10ZM10.0364 16.5C11.2197 16.5 12.2655 16.175 13.1739 15.525C14.0822 14.875 14.7364 14.0333 15.1364 13H4.93638C5.33638 14.0333 5.99054 14.875 6.89888 15.525C7.80721 16.175 8.85304 16.5 10.0364 16.5ZM18.0364 4H17.0364C16.753 4 16.5155 3.90417 16.3239 3.7125C16.1322 3.52083 16.0364 3.28333 16.0364 3C16.0364 2.71667 16.1322 2.47917 16.3239 2.2875C16.5155 2.09583 16.753 2 17.0364 2H18.0364V1C18.0364 0.716667 18.1322 0.479167 18.3239 0.2875C18.5155 0.0958333 18.753 0 19.0364 0C19.3197 0 19.5572 0.0958333 19.7489 0.2875C19.9405 0.479167 20.0364 0.716667 20.0364 1V2H21.0364C21.3197 2 21.5572 2.09583 21.7489 2.2875C21.9405 2.47917 22.0364 2.71667 22.0364 3C22.0364 3.28333 21.9405 3.52083 21.7489 3.7125C21.5572 3.90417 21.3197 4 21.0364 4H20.0364V5C20.0364 5.28333 19.9405 5.52083 19.7489 5.7125C19.5572 5.90417 19.3197 6 19.0364 6C18.753 6 18.5155 5.90417 18.3239 5.7125C18.1322 5.52083 18.0364 5.28333 18.0364 5V4Z" fill="black"/>
</svg>
